<?xml version="1.0" encoding="UTF-8"?>
<svg version="1.1" xmlns="http://www.w3.org/2000/svg" width="271" height="305">
<path d="M0 0 C89.43 0 178.86 0 271 0 C271 100.65 271 201.3 271 305 C181.57 305 92.14 305 0 305 C0 204.35 0 103.7 0 0 Z " fill="#E6EEEE" transform="translate(0,0)"/>
<path d="M0 0 C4.97357699 1.98713353 7.94784407 6.09383078 11.46484375 9.98046875 C13.78115697 12.22258576 13.78115697 12.22258576 16.453125 12.1484375 C19.92800765 10.58154256 22.25026491 8.17762057 24.8125 5.4375 C25.31458984 4.91736328 25.81667969 4.39722656 26.33398438 3.86132812 C27.56529127 2.5831143 28.7839407 1.29272853 30 0 C34.97357699 1.98713353 37.94784407 6.09383078 41.46484375 9.98046875 C43.78115697 12.22258576 43.78115697 12.22258576 46.453125 12.1484375 C49.92800765 10.58154256 52.25026491 8.17762057 54.8125 5.4375 C55.31458984 4.91736328 55.81667969 4.39722656 56.33398438 3.86132812 C57.56529127 2.5831143 58.7839407 1.29272853 60 0 C64.97357699 1.98713353 67.94784407 6.09383078 71.46484375 9.98046875 C73.78115697 12.22258576 73.78115697 12.22258576 76.453125 12.1484375 C79.92800765 10.58154256 82.25026491 8.17762057 84.8125 5.4375 C85.31458984 4.91736328 85.81667969 4.39722656 86.33398438 3.86132812 C87.56529127 2.5831143 88.7839407 1.29272853 90 0 C94.07376031 1.61010527 96.76507069 4.53822271 99.75 7.625 C100.25660156 8.140625 100.76320312 8.65625 101.28515625 9.1875 C102.52803902 10.45383339 103.76465276 11.7263144 105 13 C108.89702108 11.42306589 111.2489773 8.88838498 114.125 5.875 C115.71189226 4.21276567 117.32909178 2.57775654 119 1 C119.66 1 120.32 1 121 1 C121.04675636 23.00980061 121.08200667 45.01959302 121.10362434 67.02943325 C121.11392936 77.2493754 121.12797489 87.46928666 121.15087891 97.68920898 C121.17083649 106.59867326 121.18372207 115.50811516 121.18817699 124.41760117 C121.19078035 129.13346983 121.19688328 133.84927449 121.21146011 138.5651226 C121.22508142 143.00803396 121.22921346 147.45085522 121.22621536 151.89378548 C121.22676349 153.52030554 121.23071375 155.14682875 121.23841095 156.77333069 C121.29486362 169.32283674 121.23202278 180.41853075 112.140625 189.94921875 C105.11483092 196.44399351 98.01914798 199.12945268 88.42546082 199.12025452 C87.31633331 199.12162918 86.20720581 199.12300385 85.06446838 199.12442017 C83.25401283 199.11902725 83.25401283 199.11902725 81.40698242 199.11352539 C80.12853455 199.11367142 78.85008667 199.11381744 77.53289795 199.1139679 C74.03535757 199.11425439 70.5378516 199.10838157 67.0403192 199.10139394 C63.38213129 199.09513577 59.72394256 199.09455465 56.06575012 199.09336853 C49.14208744 199.09026248 42.21844057 199.08205888 35.29478484 199.07201904 C27.41090331 199.06083536 19.52702101 199.05534177 11.64313352 199.05032361 C-4.57125358 199.03987566 -20.78562477 199.02229027 -37 199 C-37 198.34 -37 197.68 -37 197 C-37.845625 196.938125 -38.69125 196.87625 -39.5625 196.8125 C-47.17526539 195.01311909 -51.0763598 190.03790829 -55.51953125 183.98828125 C-59.54584243 175.86129431 -59.41877232 166.64443068 -59.5 157.75 C-59.54125 156.6053125 -59.5825 155.460625 -59.625 154.28125 C-59.6353125 153.17265625 -59.645625 152.0640625 -59.65625 150.921875 C-59.67494141 149.92768555 -59.69363281 148.93349609 -59.71289062 147.90917969 C-59 145 -59 145 -53 139 C-45.08 139 -37.16 139 -29 139 C-29 93.46 -29 47.92 -29 1 C-26 1 -26 1 -24.28125 2.64453125 C-23.39953125 3.71767578 -23.39953125 3.71767578 -22.5 4.8125 C-21.3376393 6.2119211 -20.17115115 7.60792716 -19 9 C-18.5359375 9.60199219 -18.071875 10.20398438 -17.59375 10.82421875 C-16.01829515 12.22500372 -16.01829515 12.22500372 -13.67578125 12.03515625 C-10.04520156 10.63062542 -7.79231697 8.22315873 -5.1875 5.4375 C-4.68541016 4.91736328 -4.18332031 4.39722656 -3.66601562 3.86132812 C-2.43470873 2.5831143 -1.2160593 1.29272853 0 0 Z " fill="#186660" transform="translate(101,49)"/>
<path d="M0 0 C36.3 0 72.6 0 110 0 C110.20151517 35.61892602 110.20151517 35.61892602 110.24414062 50.5390625 C110.27381495 60.84322544 110.30870926 71.14718404 110.37719727 81.45117188 C110.42705196 88.95536829 110.45929566 96.45939902 110.47044247 103.96375644 C110.47695782 107.93691386 110.49225678 111.90959728 110.52865028 115.88260269 C110.56264288 119.62389379 110.57304669 123.36451663 110.56553841 127.10594749 C110.5675652 129.13022265 110.59444333 131.15442536 110.62210083 133.17851257 C110.56581498 143.09929564 110.56581498 143.09929564 107.58952332 146.80050659 C104.57846683 149.35804251 103.66813433 149.92290758 99.75 150.375 C96.08499292 150.00849929 94.0109703 149.45302346 91.23535156 147.00634766 C87.79126816 141.41277505 89.44773725 132.8245564 89.58984375 126.50390625 C89.59113281 125.23417969 89.59242188 123.96445313 89.59375 122.65625 C89.62146484 121.49931641 89.64917969 120.34238281 89.67773438 119.15039062 C88.90721002 115.56867368 87.66716938 114.27897201 84.82251358 112.04612923 C81.62181971 110.20891965 78.28120195 110.29972844 74.69970703 110.34057617 C73.87627241 110.33006131 73.05283779 110.31954645 72.20445061 110.30871296 C69.55516676 110.28045401 66.90721277 110.2859868 64.2578125 110.29296875 C62.61578543 110.28043613 60.9737738 110.26567649 59.33178711 110.24865723 C53.26300854 110.20130894 47.19395586 110.19698524 41.125 110.1875 C27.55375 110.125625 13.9825 110.06375 0 110 C0 73.7 0 37.4 0 0 Z " fill="#E3ECEC" transform="translate(92,78)"/>
<path d="M0 0 C33 0 66 0 100 0 C100 6.6 100 13.2 100 20 C87.84756536 20.11299254 75.69547999 20.20471173 63.54263878 20.25906086 C57.89948372 20.28514666 52.2567069 20.32052692 46.61376953 20.37719727 C41.16726594 20.43155215 35.721126 20.46142819 30.2743721 20.47438622 C28.1971222 20.48361976 26.11989204 20.50165092 24.04279709 20.52865028 C21.1314479 20.56498632 18.22159831 20.56994338 15.31005859 20.56762695 C14.45266083 20.58560333 13.59526306 20.60357971 12.71188354 20.62210083 C8.69286132 20.58753529 6.13858285 20.0618257 2.41812134 18.40202332 C0 15 0 15 0 0 Z " fill="#E4EDED" transform="translate(62,208)"/>
<path d="M0 0 C0.90458954 -0.01606293 1.80917908 -0.03212585 2.74118042 -0.04867554 C6.86780955 -0.09321655 10.99428052 -0.13417174 15.12109375 -0.15722656 C17.29763469 -0.17380168 19.47412086 -0.20111196 21.65039062 -0.23925781 C24.79081412 -0.2940022 27.92996453 -0.31589503 31.07080078 -0.33056641 C32.04177704 -0.35323578 33.0127533 -0.37590515 34.01315308 -0.39926147 C38.70086945 -0.38459438 40.81006564 -0.34951798 44.62744141 2.58300781 C47.11598925 6.02181036 47.23546772 7.92372531 47.01611328 12.03662109 C46.21612075 15.48658887 44.26018333 17.10215105 41.51611328 19.19287109 C39.18489861 20.35847843 37.74431466 20.34988974 35.14575195 20.40161133 C33.78875435 20.43054726 33.78875435 20.43054726 32.40434265 20.46006775 C28.26512586 20.51775681 24.12608366 20.56708053 19.98657227 20.59790039 C17.8031433 20.61949599 15.61980126 20.65361704 13.43676758 20.70043945 C10.28964561 20.76733871 7.14431412 20.79488254 3.99658203 20.81396484 C3.02246872 20.8417955 2.04835541 20.86962616 1.04472351 20.89830017 C-5.56291868 20.87824492 -5.56291868 20.87824492 -8.22138977 18.89984131 C-11.57620136 15.01757071 -12.19519263 12.16759797 -11.91357422 7.24755859 C-11.2805896 4.22074124 -9.99746291 2.91646619 -7.48388672 1.19287109 C-4.68657959 0.26043538 -2.89915004 0.04687238 0 0 Z " fill="#17655F" transform="translate(114.48388671875,97.80712890625)"/>
<path d="M0 0 C2.01053418 -0.01658776 4.02100873 -0.04391469 6.03125 -0.08203125 C8.94260983 -0.1368681 11.85259729 -0.15867901 14.7644043 -0.17333984 C16.10528358 -0.2073439 16.10528358 -0.2073439 17.47325134 -0.24203491 C21.80618604 -0.22740858 24.69308622 -0.02497795 28.14672852 2.74023438 C30.63751238 5.4108943 31.38769591 6.28110356 31.26831055 9.85009766 C31.03414514 13.54744611 30.6089765 14.31543186 28.14331055 17.35009766 C27.29768555 18.01009766 26.45206055 18.67009766 25.58081055 19.35009766 C25.08581055 19.84509766 25.08581055 19.84509766 24.58081055 20.35009766 C23.13491653 20.47423662 21.68311751 20.53066439 20.23217773 20.55883789 C18.84503571 20.58777382 18.84503571 20.58777382 17.42987061 20.61729431 C13.18643845 20.67484841 8.94318104 20.72433029 4.69946289 20.75512695 C2.4606992 20.77670657 0.22201987 20.81080866 -2.01635742 20.85766602 C-5.23956083 20.92456808 -8.4610152 20.95211242 -11.68481445 20.97119141 C-12.6839386 20.99902206 -13.68306274 21.02685272 -14.71246338 21.05552673 C-21.48993029 21.03546622 -21.48993029 21.03546622 -24.17234802 19.05706787 C-27.51873776 15.1851434 -28.13847675 12.31208802 -27.84106445 7.40478516 C-27.41918945 5.35009766 -27.41918945 5.35009766 -25.73168945 2.85009766 C-18.78663082 -1.65480524 -7.96437567 0.04816244 0 0 Z " fill="#17655F" transform="translate(130.419189453125,127.64990234375)"/>
<path d="M0 0 C4.92293178 0.4842228 6.64569948 1.59028719 9.8125 5.375 C10.61446235 8.5427513 10.60481409 11.20574363 9.8125 14.375 C7.375 17.375 7.375 17.375 4.8125 19.375 C4.4825 19.705 4.1525 20.035 3.8125 20.375 C0.5625 20.75 0.5625 20.75 -3.1875 20.375 C-7.06699018 17.17020377 -8.99576445 15.06866403 -9.5625 10.0625 C-9.09536625 5.46901813 -7.66709782 4.26052015 -4.1875 1.375 C-3.1875 0.375 -3.1875 0.375 0 0 Z " fill="#17655F" transform="translate(181.1875,97.625)"/>
<path d="M0 0 C4.92293178 0.4842228 6.64569948 1.59028719 9.8125 5.375 C10.61446235 8.5427513 10.60481409 11.20574363 9.8125 14.375 C7.375 17.375 7.375 17.375 4.8125 19.375 C4.4825 19.705 4.1525 20.035 3.8125 20.375 C0.625 20.875 0.625 20.875 -3.1875 20.375 C-7.12460963 17.49063925 -8.97007134 14.52144205 -9.875 9.75 C-9.01957733 5.55065233 -7.43974842 4.0719865 -4.1875 1.375 C-3.1875 0.375 -3.1875 0.375 0 0 Z " fill="#17655F" transform="translate(181.1875,127.625)"/>
<path d="M0 0 C4.97357699 1.98713353 7.94784407 6.09383078 11.46484375 9.98046875 C13.78216732 12.22349879 13.78216732 12.22349879 16.4609375 12.1484375 C19.9105427 10.58815453 22.16992031 8.18114807 24.6875 5.4375 C26.42367263 3.57682097 28.17841447 1.78051919 30 0 C30.66 0 31.32 0 32 0 C30.4614092 3.80736029 28.12165284 5.93869545 25.0625 8.625 C24.18722656 9.40101562 23.31195313 10.17703125 22.41015625 10.9765625 C20 13 20 13 17 15 C10.73971229 14.12647148 6.97244979 9.55077781 3 5 C2.67 4.34 2.34 3.68 2 3 C0.35 3.33 -1.3 3.66 -3 4 C-2.01 2.68 -1.02 1.36 0 0 Z " fill="#1B6862" transform="translate(101,49)"/>
<path d="M0 0 C4.95904891 2.47952446 7.70953674 5.88137738 11.3671875 9.98046875 C13.88784148 12.37053432 13.88784148 12.37053432 17.3203125 11.80078125 C18.20460937 11.53652344 19.08890625 11.27226563 20 11 C19.34 12.32 18.68 13.64 18 15 C15 15 15 15 12 14 C12 13.34 12 12.68 12 12 C11.01 11.67 10.02 11.34 9 11 C9 10.34 9 9.68 9 9 C8.01 8.67 7.02 8.34 6 8 C6 7.34 6 6.68 6 6 C5.01 5.67 4.02 5.34 3 5 C2.67 4.34 2.34 3.68 2 3 C-2.29238623 4.65091778 -4.8793915 7.73754566 -8 11 C-8.66 10.67 -9.32 10.34 -10 10 C-6.7 6.7 -3.4 3.4 0 0 Z " fill="#1F6B65" transform="translate(161,49)"/>
<path d="M0 0 C0.495 1.485 0.495 1.485 1 3 C-2.20045476 5.13363651 -2.98629436 5.24672228 -6.6550293 5.22705078 C-8.06615242 5.22682419 -8.06615242 5.22682419 -9.50578308 5.22659302 C-10.51836685 5.21627045 -11.53095062 5.20594788 -12.57421875 5.1953125 C-14.13267265 5.19106766 -14.13267265 5.19106766 -15.72261047 5.18673706 C-19.04435697 5.17553282 -22.36583485 5.15042764 -25.6875 5.125 C-27.93814715 5.11497052 -30.18879852 5.10584462 -32.43945312 5.09765625 C-37.95972722 5.0755927 -43.47984442 5.04211271 -49 5 C-49 4.67 -49 4.34 -49 4 C-47.69329346 3.98541748 -46.38658691 3.97083496 -45.0402832 3.95581055 C-40.18518925 3.89777185 -35.33055637 3.82053884 -30.47583008 3.73754883 C-28.37597139 3.70432578 -26.27602397 3.6762857 -24.17602539 3.65356445 C-21.15472656 3.61997064 -18.13423899 3.56765166 -15.11328125 3.51171875 C-13.70832146 3.50213387 -13.70832146 3.50213387 -12.27497864 3.49235535 C-7.36572082 3.38199678 -4.01613302 3.15632046 0 0 Z " fill="#B7CFCE" transform="translate(159,114)"/>
<path d="M0 0 C0.33 0.99 0.66 1.98 1 3 C-0.26886964 4.12721436 -1.54017562 5.25168658 -2.8125 6.375 C-3.52019531 7.00148438 -4.22789063 7.62796875 -4.95703125 8.2734375 C-7 10 -7 10 -10 12 C-12.5 10.625 -12.5 10.625 -15 9 C-15 8.34 -15 7.68 -15 7 C-14.01 7.33 -13.02 7.66 -12 8 C-8.05890478 8.40455615 -8.05890478 8.40455615 -5.75390625 6.28515625 C-3.74897115 4.25163027 -1.83962273 2.18365607 0 0 Z " fill="#1F6B65" transform="translate(97,53)"/>
<path d="M0 0 C-1.5385908 3.80736029 -3.87834716 5.93869545 -6.9375 8.625 C-7.81277344 9.40101562 -8.68804687 10.17703125 -9.58984375 10.9765625 C-12 13 -12 13 -15 15 C-15.66 14.34 -16.32 13.68 -17 13 C-16.28199219 12.61199219 -15.56398438 12.22398438 -14.82421875 11.82421875 C-11.68599358 9.79717704 -9.38816188 7.51285353 -6.8125 4.8125 C-2.22031474 0 -2.22031474 0 0 0 Z " fill="#236D68" transform="translate(133,49)"/>
<path d="M0 0 C0 0.33 0 0.66 0 1 C-0.7425 1.061875 -1.485 1.12375 -2.25 1.1875 C-5.81867077 2.24188 -6.82422624 4.07395942 -9 7 C-9.66 7 -10.32 7 -11 7 C-10.6875 4.625 -10.6875 4.625 -10 2 C-6.3558226 -0.4294516 -4.28758728 -0.16179575 0 0 Z " fill="#337873" transform="translate(185,128)"/>
<path d="M0 0 C1.78821774 2.68232661 3.20142604 5.30288961 4.625 8.1875 C5.07101563 9.08855469 5.51703125 9.98960937 5.9765625 10.91796875 C6.31429687 11.60503906 6.65203125 12.29210937 7 13 C5.109375 12.66796875 5.109375 12.66796875 3 12 C0.33719307 7.91068936 -0.34568576 4.83960066 0 0 Z " fill="#D0E0DF" transform="translate(42,224)"/>
<path d="M0 0 C2.475 0.495 2.475 0.495 5 1 C5 1.66 5 2.32 5 3 C6.65 3.33 8.3 3.66 10 4 C10 4.66 10 5.32 10 6 C10.99 6.33 11.98 6.66 13 7 C7.53228436 6.59992325 4.04064621 4.53855408 0 1 C0 0.67 0 0.34 0 0 Z " fill="#337873" transform="translate(51,239)"/>
<path d="M0 0 C0 0.33 0 0.66 0 1 C-1.98 1 -3.96 1 -6 1 C-6.33 2.32 -6.66 3.64 -7 5 C-7.99 5 -8.98 5 -10 5 C-10 4.01 -10 3.02 -10 2 C-6.3558226 -0.4294516 -4.28758728 -0.16179575 0 0 Z " fill="#387B76" transform="translate(185,98)"/>
<path d="M0 0 C1.33332095 2.6666419 0.67102033 4.16680303 0 7 C0.66 7 1.32 7 2 7 C2.66 8.65 3.32 10.3 4 12 C3.01 12.495 3.01 12.495 2 13 C-0.97663853 8.90712202 -1.38606152 6.01879978 -1 1 C-0.67 0.67 -0.34 0.34 0 0 Z " fill="#387B76" transform="translate(173,103)"/>
<path d="M0 0 C0.66 0.33 1.32 0.66 2 1 C1.25 3.9375 1.25 3.9375 0 7 C-1.32 7.33 -2.64 7.66 -4 8 C-2.68 5.36 -1.36 2.72 0 0 Z " fill="#CBDCDC" transform="translate(219,229)"/>
<path d="M0 0 C3.875 1.75 3.875 1.75 5 4 C8.02934491 4.65772428 8.02934491 4.65772428 11 5 C11 5.33 11 5.66 11 6 C4.63636364 6.48951049 4.63636364 6.48951049 1.5625 4.125 C0 2 0 2 0 0 Z " fill="#397C77" transform="translate(174,142)"/>
<path d="M0 0 C-4.30769231 3.07692308 -4.30769231 3.07692308 -7.8125 2.6875 C-8.534375 2.460625 -9.25625 2.23375 -10 2 C-10 1.67 -10 1.34 -10 1 C-3.71428571 -1.42857143 -3.71428571 -1.42857143 0 0 Z " fill="#D4E3E2" transform="translate(190,147)"/>
</svg>
