<?xml version="1.0" encoding="UTF-8"?>
<svg version="1.1" xmlns="http://www.w3.org/2000/svg" width="149" height="141">
<path d="M0 0 C49.17 0 98.34 0 149 0 C149 46.53 149 93.06 149 141 C99.83 141 50.66 141 0 141 C0 94.47 0 47.94 0 0 Z " fill="#17655F" transform="translate(0,0)"/>
<path d="M0 0 C49.17 0 98.34 0 149 0 C149 46.53 149 93.06 149 141 C99.83 141 50.66 141 0 141 C0 94.47 0 47.94 0 0 Z M17 27 C14.576762 30.634857 14.71088887 33.31240416 14.7253418 37.51318359 C14.72023087 38.27612228 14.71511993 39.03906097 14.70985413 39.82511902 C14.69594336 42.34963811 14.69691619 44.87388461 14.69921875 47.3984375 C14.6953322 49.15337221 14.69099762 50.90830598 14.68623352 52.66323853 C14.67876781 56.3435572 14.67906481 60.02377996 14.68432617 63.70410156 C14.6901167 68.4174928 14.67320169 73.13049056 14.6499815 77.84381676 C14.63523874 81.46925142 14.63437327 85.09459149 14.63749123 88.72005081 C14.63697814 90.45756432 14.63174266 92.19508315 14.62167931 93.9325676 C14.60932364 96.36464619 14.61610131 98.7959607 14.62768555 101.22802734 C14.62004181 101.94404617 14.61239807 102.660065 14.60452271 103.39778137 C14.65057695 107.77881984 15.21880774 110.57758163 18 114 C22.44282793 117.80974129 27.08853014 117.43164558 32.65209961 117.40405273 C33.61854904 117.41091599 34.58499847 117.41777924 35.58073425 117.42485046 C38.77142073 117.44313284 41.96161619 117.43927881 45.15234375 117.43359375 C47.37285014 117.43815486 49.59335511 117.44346023 51.81385803 117.44947815 C56.46670264 117.45841211 61.11937563 117.4559828 65.7722168 117.44604492 C71.73207788 117.4345553 77.69134648 117.45476565 83.65112972 117.48396206 C88.23653419 117.50231625 92.82179648 117.50203311 97.40722847 117.49632454 C99.60444533 117.49617123 101.80167177 117.50222361 103.99885368 117.51461601 C107.07244816 117.52950891 110.1449455 117.51886078 113.21850586 117.50170898 C114.12415283 117.51137695 115.0297998 117.52104492 115.96289062 117.53100586 C121.43538206 117.46712311 124.73310112 116.76611748 129 113 C131.64788977 109.53932879 131.29582395 105.56016901 131.29052734 101.37329102 C131.29724457 100.6102063 131.30396179 99.84712158 131.31088257 99.06091309 C131.3298592 96.54184434 131.33378639 94.023042 131.3359375 91.50390625 C131.34236503 89.7504007 131.34909336 87.99689623 131.35610962 86.24339294 C131.36808108 82.56905633 131.37179052 78.89481373 131.37060547 75.22045898 C131.37040214 70.51484769 131.39771889 65.8098394 131.43214989 61.10437107 C131.45439771 57.48322282 131.45844369 53.86222027 131.45738602 50.24101067 C131.45974461 48.50627499 131.46858269 46.77153546 131.48405075 45.03686714 C131.50367104 42.60951714 131.49788945 40.18347506 131.48583984 37.75610352 C131.49707886 37.04165573 131.50831787 36.32720795 131.51989746 35.59111023 C131.47603913 32.11019123 131.07401571 30.11888961 129.21963501 27.14024353 C125.9359854 23.97404287 123.31850063 22.75360708 118.76296997 22.73257446 C117.50560532 22.71977951 117.50560532 22.71977951 116.22283936 22.70672607 C114.85593964 22.70808563 114.85593964 22.70808563 113.46142578 22.70947266 C112.49512238 22.70275543 111.52881897 22.69603821 110.53323364 22.68911743 C107.33720769 22.67011157 104.14139145 22.66621193 100.9453125 22.6640625 C98.72337762 22.65763645 96.50144359 22.65090824 94.2795105 22.64389038 C89.62072793 22.63191119 84.96201954 22.62821023 80.30322266 22.62939453 C74.335513 22.62959777 68.3682793 22.60229295 62.40068245 22.56785011 C57.81100278 22.54560548 53.22143811 22.54155625 48.63171005 22.54261398 C46.43169387 22.54025446 44.23167469 22.53141123 42.03171158 22.51594925 C38.95325705 22.49633883 35.87583467 22.50210828 32.79736328 22.51416016 C31.89014526 22.50292114 30.98292725 22.49168213 30.04821777 22.48010254 C24.54819992 22.53477782 21.33198847 23.28096672 17 27 Z " fill="#E6EEEE" transform="translate(0,0)"/>
<path d="M0 0 C31.02 0 62.04 0 94 0 C94 10.23 94 20.46 94 31 C89.93779804 35.06220196 89.41851091 35.45901002 84.08908081 35.54211426 C82.91383347 35.52996887 82.91383347 35.52996887 81.71484375 35.51757812 C80.46539474 35.52809204 80.46539474 35.52809204 79.19070435 35.53881836 C76.43929639 35.55641319 73.68891829 35.54477059 70.9375 35.53125 C69.0246562 35.53394449 67.11181372 35.53782656 65.19897461 35.54284668 C61.19078526 35.54874374 57.18295257 35.54017208 53.17480469 35.52148438 C48.03634758 35.49869472 42.89872613 35.51181669 37.76029968 35.53577423 C33.81060486 35.55022659 29.86110825 35.5456288 25.91140747 35.53526306 C24.01677349 35.53259422 22.12212153 35.53587106 20.22750854 35.54518127 C17.57957272 35.55533765 14.93299116 35.53985924 12.28515625 35.51757812 C11.10990891 35.52972351 11.10990891 35.52972351 9.91091919 35.54211426 C4.58148909 35.45901002 4.06220196 35.06220196 0 31 C0 20.77 0 10.54 0 0 Z " fill="#E6EEEE" transform="translate(26,70)"/>
<path d="M0 0 C0.80736603 0.00607269 1.61473206 0.01214539 2.44656372 0.0184021 C3.30049713 0.01314514 4.15443054 0.00788818 5.03424072 0.00247192 C7.86066915 -0.0107462 10.68653569 -0.00198363 13.51296997 0.00814819 C15.47447823 0.00612798 17.43598577 0.00321698 19.39749146 -0.00054932 C23.50995021 -0.00497513 27.62221359 0.00146668 31.73464966 0.01547241 C37.01098685 0.0325644 42.28686626 0.0227246 47.56318665 0.00475502 C51.61403871 -0.00607586 55.6647819 -0.00263967 59.71563721 0.0051384 C61.66133681 0.00714233 63.60704624 0.00467438 65.55273438 -0.00230026 C68.27021538 -0.00990328 70.98695087 0.00167317 73.70437622 0.0184021 C74.51174225 0.01232941 75.31910828 0.00625671 76.15093994 0 C81.73267291 0.06378863 81.73267291 0.06378863 85.07546997 3.40658569 C85.07546997 6.37658569 85.07546997 9.34658569 85.07546997 12.40658569 C54.05546997 12.40658569 23.03546997 12.40658569 -8.92453003 12.40658569 C-8.92453003 9.43658569 -8.92453003 6.46658569 -8.92453003 3.40658569 C-5.58120613 0.06326179 -4.52240602 0.05168253 0 0 Z " fill="#E1EBEB" transform="translate(34.924530029296875,34.593414306640625)"/>
</svg>
