<?xml version="1.0" encoding="UTF-8"?>
<svg version="1.1" xmlns="http://www.w3.org/2000/svg" width="512" height="512">
<path d="M0 0 C2.1350428 0.78054068 4.27088424 1.55889985 6.4074707 2.33520508 C10.81568271 3.94048278 15.2191916 5.5577599 19.61914062 7.18554688 C25.57437467 9.38692565 31.54168373 11.55309927 37.515625 13.703125 C39.38428641 14.37595138 41.25293875 15.04880297 43.12158203 15.72167969 C44.51089935 16.22193665 44.51089935 16.22193665 45.92828369 16.7322998 C50.74893734 18.4709509 55.56564377 20.22047206 60.3828125 21.96875 C70.97987463 25.81309013 81.58487636 29.63519509 92.19161987 33.45271301 C98.78701652 35.82665201 105.38169922 38.20252748 111.97412109 40.5847168 C112.61299822 40.81557448 113.25187534 41.04643217 113.91011238 41.28428555 C117.07235425 42.42707502 120.23447556 43.57019693 123.39651489 44.71354675 C130.02168634 47.1078404 136.65086503 49.49020456 143.28651428 51.8553009 C146.84716094 53.12672809 150.40393932 54.40869789 153.95968628 55.6937561 C155.54168937 56.2627735 157.12540224 56.8270647 158.71096802 57.38607788 C178.24885297 64.27909372 178.24885297 64.27909372 183 72.75 C183.38027344 73.40355469 183.76054687 74.05710937 184.15234375 74.73046875 C186.16322012 78.7781126 186.2108357 82.40729773 186.20967102 86.8163147 C186.21518605 87.933012 186.21518605 87.933012 186.2208125 89.07226884 C186.23185307 91.57504163 186.2356941 94.0777729 186.23950195 96.58056641 C186.24576727 98.37293632 186.25241413 100.16530493 186.25941467 101.95767212 C186.28048278 107.85979301 186.29083263 113.7619142 186.30078125 119.6640625 C186.30483044 121.70254912 186.30894741 123.7410356 186.31313133 125.77952194 C186.33220395 135.37599202 186.34641995 144.9724544 186.3547433 154.56893981 C186.3644667 165.5952899 186.3906481 176.62143661 186.43124419 187.64771521 C186.46161813 196.19586801 186.47623288 204.74396334 186.47952431 213.29216897 C186.48185445 218.38303864 186.49054191 223.47369166 186.51598549 228.56450272 C186.63756574 254.2148707 186.48630967 279.22212203 178.375 303.875 C178.03251221 304.94637207 177.69002441 306.01774414 177.3371582 307.12158203 C167.67850775 336.47985952 151.58506019 362.77801994 132.0625 386.5625 C131.58699707 387.14241699 131.11149414 387.72233398 130.62158203 388.31982422 C123.67724695 396.73052073 116.29268011 404.56324949 108.48364258 412.17382812 C105.58435093 415.00687586 102.72994623 417.88426918 99.88671875 420.7734375 C95.11875656 425.60241566 90.22960848 430.16686952 85.0625 434.5625 C84.175625 435.33851563 83.28875 436.11453125 82.375 436.9140625 C56.79376098 459.14492753 28.213087 477.89132183 -1.1875 494.625 C-2.12762939 495.16133057 -3.06775879 495.69766113 -4.03637695 496.25024414 C-14.53696783 502.15571107 -23.49568722 506.96247474 -35.9375 504.5625 C-40.80482001 502.83671987 -45.12643713 500.54021001 -49.57763672 497.94042969 C-52.18141157 496.42007947 -54.81013205 494.94877465 -57.44140625 493.4765625 C-84.26551879 478.30238679 -109.46635942 460.65425787 -133.1875 441.00390625 C-134.8122391 439.66567248 -136.4488883 438.34462171 -138.09375 437.03125 C-143.03789232 433.0650699 -147.6481659 428.98923836 -152.0625 424.44140625 C-153.84987259 422.65030997 -155.69578163 421.01081641 -157.625 419.375 C-166.39095961 411.82172255 -174.46926528 403.38859558 -181.9375 394.5625 C-183.23880859 393.09490234 -183.23880859 393.09490234 -184.56640625 391.59765625 C-220.33130516 351.09347658 -244.03082636 301.27657433 -244.11450195 246.79296875 C-244.12077552 244.99345776 -244.12742309 243.19394804 -244.13441467 241.3944397 C-244.15533773 235.51296878 -244.1658007 229.63149792 -244.17578125 223.75 C-244.17983213 221.71918729 -244.18394914 219.6883747 -244.18813133 217.65756226 C-244.20715104 208.12094658 -244.22139313 198.58433852 -244.2297433 189.04770756 C-244.23952725 178.05747868 -244.26589052 167.06745057 -244.30624419 156.07729244 C-244.33641752 147.56663565 -244.35121302 139.05603643 -244.35452431 130.54532719 C-244.35687179 125.46847147 -244.36579447 120.39183108 -244.39098549 115.31503296 C-244.41429495 110.54114855 -244.41848789 105.76762091 -244.40822411 100.99369431 C-244.40772947 99.24621772 -244.41402855 97.49872336 -244.42778015 95.75130081 C-244.5036293 85.53866367 -244.42511936 77.04736811 -237.6875 68.8125 C-230.89116178 63.25185964 -223.75293613 60.11823911 -215.5078125 57.21875 C-214.39034637 56.81712646 -213.27288025 56.41550293 -212.12155151 56.00170898 C-209.07538822 54.9086498 -206.02644 53.82383522 -202.97613525 52.74240112 C-199.72891815 51.58868776 -196.48569675 50.42385359 -193.2421875 49.25976562 C-188.51004548 47.56230002 -183.77687341 45.86777065 -179.04229355 44.17711639 C-167.1812986 39.94120922 -155.34056383 35.64987309 -143.50088501 31.35476685 C-137.53409785 29.19090266 -131.56577135 27.03129201 -125.59765625 24.87109375 C-116.73527608 21.66261892 -107.87351104 18.45245121 -99.01229858 15.24075317 C-94.38140148 13.56231849 -89.75033753 11.88434437 -85.1192379 10.20646858 C-81.97494107 9.06723051 -78.83076783 7.92765414 -75.68676758 6.78759766 C-74.50429443 6.35882324 -73.32182129 5.93004883 -72.10351562 5.48828125 C-70.95525299 5.07174286 -69.80699036 4.65520447 -68.62393188 4.2260437 C-66.40189168 3.42208613 -64.17875289 2.62115737 -61.95443726 1.82351685 C-57.28388257 0.148287 -52.62798504 -1.54245605 -48.01220703 -3.36376953 C-30.04038712 -10.3695167 -17.39942875 -6.51665752 0 0 Z M-38.72192383 37.12524414 C-40.12699692 37.64587936 -40.12699692 37.64587936 -41.56045532 38.17703247 C-42.57820038 38.56333832 -43.59594543 38.94964417 -44.64453125 39.34765625 C-45.72850189 39.75120331 -46.81247253 40.15475037 -47.92929077 40.57052612 C-50.29302691 41.45116147 -52.65544184 42.33534924 -55.01669312 43.22262573 C-60.77417393 45.38535791 -66.53977812 47.52611786 -72.30571175 49.66619301 C-73.65654943 50.16765727 -75.00728045 50.66940895 -76.35790825 51.17143822 C-90.87541389 56.56687723 -105.44476116 61.81393528 -120.02651978 67.03277588 C-126.74980919 69.43909476 -133.47051516 71.85261752 -140.19140625 74.265625 C-141.15063397 74.6099954 -141.15063397 74.6099954 -142.12924004 74.96132278 C-158.64301892 80.88623697 -158.64301892 80.88623697 -175.1366272 86.86697388 C-176.72704465 87.44589135 -178.31846556 88.02206115 -179.91098022 88.59518433 C-182.03985933 89.36187238 -184.16486266 90.13842741 -186.2890625 90.91796875 C-187.44229004 91.33715576 -188.59551758 91.75634277 -189.78369141 92.18823242 C-195.39375658 94.63281029 -199.20695152 97.00259252 -201.9375 102.5625 C-202.37626816 105.49172305 -202.37626816 105.49172305 -202.29826355 108.66853333 C-202.30239604 109.89291768 -202.30652853 111.11730204 -202.31078625 112.37878895 C-202.30014719 113.73275268 -202.28923351 115.08671427 -202.27807617 116.44067383 C-202.27715675 117.89306711 -202.27755835 119.34546174 -202.27917194 120.79785442 C-202.27984839 124.68242589 -202.26247868 128.56671934 -202.24134064 132.45122528 C-202.22423809 136.09814822 -202.22345033 139.74500403 -202.22131348 143.39196777 C-202.20558023 154.05301525 -202.16369667 164.71401115 -202.125 175.375 C-202.063125 199.196875 -202.00125 223.01875 -201.9375 247.5625 C-144.8475 247.5625 -87.7575 247.5625 -28.9375 247.5625 C-28.9375 177.6025 -28.9375 107.6425 -28.9375 35.5625 C-33.18403382 35.5625 -34.97698988 35.71849436 -38.72192383 37.12524414 Z M-28.9375 248.5625 C-28.9375 318.1925 -28.9375 387.8225 -28.9375 459.5625 C-22.14047953 458.6112008 -22.14047953 458.6112008 -16.55859375 455.7109375 C-15.06960571 454.81628784 -15.06960571 454.81628784 -13.55053711 453.90356445 C-11.97864624 452.93036255 -11.97864624 452.93036255 -10.375 451.9375 C-8.72866577 450.9323938 -8.72866577 450.9323938 -7.04907227 449.90698242 C9.58729672 439.65604858 25.62066354 428.53524963 41.0625 416.5625 C42.40441406 415.52416016 42.40441406 415.52416016 43.7734375 414.46484375 C60.83589602 401.01918469 77.22511479 386.44926633 91.63574219 370.171875 C92.58907264 369.09652347 93.54810917 368.02620435 94.51269531 366.9609375 C124.30273348 334.05079526 145.0625 293.48330475 145.0625 248.5625 C87.6425 248.5625 30.2225 248.5625 -28.9375 248.5625 Z " fill="#000000" transform="translate(284.9375,7.4375)"/>
</svg>
