<?xml version="1.0" encoding="UTF-8"?>
<svg version="1.1" xmlns="http://www.w3.org/2000/svg" width="220" height="200">
<path d="M0 0 C72.6 0 145.2 0 220 0 C220 66 220 132 220 200 C147.4 200 74.8 200 0 200 C0 134 0 68 0 0 Z " fill="#E3ECEC" transform="translate(0,0)"/>
<path d="M0 0 C0.64791242 -0.00382555 1.29582485 -0.00765109 1.96337098 -0.01159257 C4.12655822 -0.02188135 6.28947798 -0.01793834 8.4526825 -0.01396179 C10.00692489 -0.01831063 11.56116515 -0.02349435 13.11540222 -0.02944946 C17.33247513 -0.04283415 21.54945838 -0.04341858 25.7665484 -0.04088616 C29.29024799 -0.03981581 32.81392949 -0.04470161 36.33762521 -0.04949158 C44.65382345 -0.06058554 52.96997653 -0.0610252 61.28617859 -0.05497742 C69.85616557 -0.0489407 78.42598824 -0.06124119 86.99594718 -0.08254749 C94.36087854 -0.10018247 101.7257577 -0.10616174 109.09070939 -0.10290974 C113.48623158 -0.10109932 117.88163664 -0.1037087 122.27713966 -0.11762428 C126.41320663 -0.13022843 130.54901829 -0.12823417 134.68508148 -0.11521339 C136.19914271 -0.11285346 137.71322204 -0.11556136 139.2272625 -0.12383652 C148.53342325 -0.17101385 155.72637 0.10400903 163.66630554 5.44819641 C168.90233489 10.80322643 170.61582808 14.7078278 170.55912781 22.36018372 C170.53870422 23.44595703 170.53870422 23.44595703 170.51786804 24.55366516 C170.50687073 25.66662964 170.50687073 25.66662964 170.49565125 26.80207825 C170.47661284 28.62171026 170.44747125 30.44123171 170.41630554 32.26069641 C169.15620667 32.26434204 167.89610779 32.26798767 166.5978241 32.27174377 C154.70951675 32.30872107 142.82146778 32.36652405 130.93335724 32.44459915 C124.82186831 32.48407019 118.71052339 32.51626072 112.59892273 32.5316925 C106.6983871 32.54686122 100.79824741 32.58131145 94.89788818 32.62900543 C92.64933721 32.64381685 90.40072972 32.65173729 88.15213013 32.65258026 C84.9969231 32.65495229 81.84280811 32.68205249 78.68778992 32.71479797 C77.76277679 32.70976761 76.83776367 32.70473724 75.88471985 32.69955444 C69.31467229 32.80471265 63.87372121 34.1420656 58.89051056 38.63698196 C53.47470114 44.65293337 53.11582428 50.94055855 53.10990906 58.61152649 C53.09742378 59.99566994 53.09742378 59.99566994 53.08468628 61.40777588 C53.06065397 64.44863647 53.05182242 67.48928227 53.04521179 70.53022766 C53.03624036 72.65243593 53.02711842 74.77464358 53.01785278 76.89685059 C53.00137865 81.34277379 52.99366552 85.78862183 52.99076843 90.23457336 C52.98538619 95.91730288 52.94770531 101.59932108 52.90202427 107.28184986 C52.87220813 111.6649124 52.86504388 116.04780458 52.86404228 120.4309597 C52.85984911 122.52524257 52.84745129 124.61952637 52.82652473 126.71370888 C52.79951613 129.6502249 52.80446416 132.58510384 52.81694031 135.52168274 C52.80210602 136.37756989 52.78727173 137.23345703 52.77198792 138.11528015 C52.84891647 144.50884072 54.73281925 149.04548422 58.41630554 154.26069641 C64.48297206 160.17569627 70.26792181 160.56089393 78.34721375 160.57954407 C79.34280807 160.58958969 80.3384024 160.59963531 81.36416626 160.60998535 C84.64846734 160.64082735 87.93268686 160.65785551 91.21708679 160.67475891 C93.49681297 160.69346972 95.77653222 160.71304306 98.0562439 160.73344421 C104.0517722 160.78478051 110.04732297 160.82439836 116.04295349 160.86158752 C122.16290346 160.90161767 128.2827599 160.95271456 134.40263367 161.00288391 C146.40712526 161.09966101 158.41166966 161.18406021 170.41630554 161.26069641 C170.44843667 163.67616768 170.471959 166.09120825 170.49052429 168.50679016 C170.50047424 169.18818054 170.51042419 169.86957092 170.52067566 170.5716095 C170.56179081 177.70184233 168.92114568 182.5150185 164.01917076 187.91970062 C156.31815681 194.36255505 146.27250983 193.83407665 136.81230164 193.77827454 C135.25731758 193.78370425 133.70233868 193.79083165 132.14736938 193.79951477 C127.95114728 193.8176473 123.75532145 193.81072344 119.559093 193.79799843 C115.15460415 193.78782184 110.75014763 193.79727664 106.34565735 193.80354309 C98.9534551 193.81080446 91.56141311 193.80126997 84.16923523 193.78218079 C75.63600001 193.76039878 67.10314692 193.76747905 58.5699209 193.78948641 C51.22609744 193.80766433 43.88238871 193.81018755 36.53855002 193.79973173 C32.15985135 193.79351199 27.78133209 193.79261948 23.40264511 193.80587769 C19.28693642 193.81747111 15.17171861 193.80934729 11.0560627 193.78630066 C9.55006918 193.78103282 8.04403401 193.78249427 6.53805733 193.79135132 C-1.38629396 193.83364407 -7.80562821 193.77722088 -14.58369446 189.26069641 C-20.33305269 183.51133818 -22.95441968 177.51383739 -22.97137451 169.39852905 C-22.97945282 168.41797182 -22.97945282 168.41797182 -22.98769432 167.41760534 C-23.00189971 165.24669762 -22.99488909 163.07640609 -22.98774719 160.9054718 C-22.99345467 159.34107985 -23.00042039 157.77669206 -23.00854492 156.21231079 C-23.02644966 151.97672571 -23.02531305 147.74134811 -23.01960254 143.50573659 C-23.01650683 139.96453157 -23.02260737 136.42336618 -23.02864128 132.8821668 C-23.04267604 124.52564363 -23.04113393 116.16922271 -23.02973938 107.81269836 C-23.01825857 99.20285364 -23.03233553 90.59332043 -23.05913585 81.98351675 C-23.08131418 74.58031719 -23.08792545 67.17721526 -23.08205944 59.77398485 C-23.07869383 55.35722322 -23.08107856 50.94066126 -23.09831047 46.52392769 C-23.11381166 42.36970404 -23.10978918 38.21594082 -23.09100533 34.06173515 C-23.08732822 32.54122377 -23.09040227 31.02067802 -23.10089111 29.50019836 C-23.1583877 20.47304291 -23.00419302 13.38333232 -16.83760071 6.23725891 C-16.27943665 5.79124329 -15.72127258 5.34522766 -15.14619446 4.88569641 C-14.59060852 4.42421204 -14.03502258 3.96272766 -13.46260071 3.48725891 C-9.04328276 0.60229875 -5.23199598 0.00927897 0 0 Z " fill="#16645E" transform="translate(34.58369445800781,4.7393035888671875)"/>
<path d="M0 0 C0.83712524 -0.00137466 1.67425049 -0.00274933 2.53674316 -0.00416565 C3.45168045 -0.00057037 4.36661774 0.0030249 5.3092804 0.00672913 C6.27532196 0.0065831 7.24136353 0.00643707 8.23667908 0.00628662 C11.43448623 0.00698411 14.63223536 0.01476889 17.83003235 0.02259827 C20.0453488 0.02446303 22.26066566 0.02588666 24.47598267 0.02688599 C30.31048214 0.03070659 36.14495677 0.040533 41.97944641 0.05158997 C48.97784665 0.06361103 55.97625518 0.0682085 62.97466278 0.07404327 C73.61006367 0.08374497 84.24541004 0.10290476 94.8808136 0.12025452 C94.8808136 28.17025452 94.8808136 56.22025452 94.8808136 85.12025452 C69.87519925 85.32079856 69.87519925 85.32079856 59.22261047 85.36439514 C51.95151038 85.39429359 44.68072487 85.42967673 37.40986633 85.49745178 C31.54840331 85.55174776 25.68727758 85.58167036 19.8255825 85.59464073 C17.58841834 85.60388483 15.3512728 85.62193635 13.11425209 85.6489048 C9.98240278 85.68516192 6.85195009 85.69020111 3.71992493 85.68788147 C2.33025261 85.71484604 2.33025261 85.71484604 0.9125061 85.74235535 C-3.63042795 85.70590742 -5.49797755 85.61081527 -9.17163086 82.70977783 C-12.22922965 78.64431053 -12.26015718 76.44629634 -12.3120575 71.36317444 C-12.32023499 70.66865677 -12.32841248 69.9741391 -12.33683777 69.25857544 C-12.36168709 66.95596683 -12.37820667 64.65341986 -12.3926239 62.35072327 C-12.39794758 61.56445368 -12.40327126 60.77818409 -12.40875626 59.96808815 C-12.43548615 55.8061737 -12.45486131 51.64428923 -12.46928406 47.48231506 C-12.48592972 43.18458762 -12.53070626 38.88762736 -12.5816555 34.59018993 C-12.61532073 31.28474045 -12.62686061 27.97947321 -12.63251114 24.67386818 C-12.63922596 23.08981273 -12.65445426 21.50576937 -12.67840195 19.92188072 C-12.71004326 17.70245845 -12.71009332 15.48510703 -12.7026825 13.26551819 C-12.71076935 12.00358139 -12.7188562 10.74164459 -12.72718811 9.44146729 C-11.95386201 5.21716908 -10.43208778 3.76444704 -7.1191864 1.12025452 C-4.38489124 0.2088228 -2.80997311 -0.00356144 0 0 Z " fill="#16645E" transform="translate(121.11918640136719,58.87974548339844)"/>
<path d="M0 0 C4.65127086 2.57695981 7.97590274 6.06505811 10 11 C10.70327922 17.02810764 9.82292774 20.32607868 6.3671875 25.3046875 C3.3371116 29.06198162 0.35516193 30.70372963 -4.453125 31.30859375 C-9.5247129 31.54234012 -13.05050286 31.60318498 -17.0625 28.25 C-21.07045481 24.36943739 -22.33955987 20.80192851 -22.5625 15.25 C-22.4973003 9.33131637 -20.8599671 6.533671 -16.7265625 2.42578125 C-12.02937725 -1.45311607 -5.75792638 -0.83311887 0 0 Z " fill="#E3ECEC" transform="translate(158,86)"/>
<path d="M0 0 C-3.57786614 2.3852441 -5.07631164 2.23642209 -9.3210907 2.20254517 C-9.96477169 2.20017046 -10.60845269 2.19779576 -11.27163917 2.1953491 C-13.43216391 2.18491806 -15.59228131 2.16004053 -17.75268555 2.13525391 C-19.29990081 2.12482961 -20.84712229 2.11529404 -22.39434814 2.10658264 C-26.59868707 2.08038373 -30.80283074 2.04171794 -35.00704932 2.00085878 C-39.3992451 1.960278 -43.79151603 1.93109995 -48.18379211 1.90072632 C-56.50298011 1.8414573 -64.82204908 1.77189336 -73.14112455 1.69865549 C-82.61133064 1.61578293 -92.08161212 1.54434935 -101.55191743 1.47388959 C-121.03472317 1.32867913 -140.51738737 1.16906128 -160 1 C-160 0.67 -160 0.34 -160 0 C-139.72925136 -0.15388755 -119.45846807 -0.30192123 -99.18762589 -0.4429636 C-89.7757774 -0.50858711 -80.36395003 -0.57613465 -70.95214844 -0.64819336 C-62.74995517 -0.71098619 -54.54774524 -0.77018769 -46.34549499 -0.82505554 C-42.00146645 -0.85424032 -37.65746773 -0.88523773 -33.31348419 -0.92053413 C-29.22602971 -0.95368945 -25.13857021 -0.98204808 -21.05105591 -1.00670624 C-19.54981969 -1.01661205 -18.04859392 -1.0282799 -16.54738617 -1.04183006 C-14.49942123 -1.06005323 -12.45139816 -1.071353 -10.40338135 -1.08229065 C-9.25667088 -1.09058679 -8.1099604 -1.09888292 -6.92850113 -1.10743046 C-4.42406944 -1.01555676 -2.38098375 -0.73650108 0 0 Z " fill="#B3CCCB" transform="translate(191,198)"/>
<path d="M0 0 C0.66 0.33 1.32 0.66 2 1 C0.92492371 2.29854721 -0.16043736 3.58858361 -1.25 4.875 C-1.85328125 5.59429687 -2.4565625 6.31359375 -3.078125 7.0546875 C-4.97087634 8.97052118 -6.53657727 9.96449045 -9 11 C-7.59928507 5.70841026 -4.14512755 3.22521956 0 0 Z " fill="#CDDEDD" transform="translate(98,39)"/>
</svg>
